<svg width="76" height="104" viewBox="0 0 76 104" fill="none" xmlns="http://www.w3.org/2000/svg">
<path d="M34.7088 98.7198C33.4496 99.7967 33.3018 101.69 34.3787 102.95C35.4556 104.209 37.3493 104.357 38.6085 103.28L34.7088 98.7198ZM65.0849 74.2907L64.3758 77.2057L70.2058 78.6238L70.9149 75.7088L65.0849 74.2907ZM36.6586 0C-2.60467 0 -13.3241 50.4939 19.6568 66.6146L22.2916 61.224C-4.83897 47.9629 3.60488 6 36.6586 6V0ZM19.6568 66.6146C34.3258 73.7846 39.0144 80.87 39.8614 86.1079C40.7135 91.3769 37.8756 96.0115 34.7088 98.7198L38.6085 103.28C42.7367 99.7491 47.0845 93.1889 45.7845 85.1501C44.4795 77.0802 37.6783 68.7449 22.2916 61.224L19.6568 66.6146ZM70.9149 75.7088C75.4617 57.0163 76.8164 38.3527 72.1109 24.1796C69.7361 17.0266 65.7819 10.9178 59.8338 6.61596C53.8841 2.313 46.1911 0 36.6586 0V6C45.2054 6 51.5947 8.06196 56.3176 11.4777C61.0421 14.8946 64.3508 19.8482 66.4165 26.0701C70.592 38.6469 69.5381 55.9832 65.0849 74.2907L70.9149 75.7088Z" fill="#8A0000"/>
</svg>
