<svg width="26" height="26" viewBox="0 0 26 26" fill="none" xmlns="http://www.w3.org/2000/svg">
<rect width="25.4403" height="25.4403" rx="12.7202" fill="#B1B1B1"/>
<path d="M19.2935 14.4404C19.2935 18.3074 16.3842 21.4404 12.7935 21.4404C9.20273 21.4404 6.29346 18.3074 6.29346 14.4404C6.29346 10.5735 9.20273 7.44043 12.7935 7.44043C16.3842 7.44043 19.2935 10.5735 19.2935 14.4404ZM11.6402 11.1662V14.4404H9.78197C9.50152 14.4404 9.35999 14.8074 9.55918 15.0191L12.5707 18.2453C12.6939 18.3779 12.8904 18.3779 13.0136 18.2453L16.0251 15.0191C16.2243 14.8045 16.0828 14.4404 15.8023 14.4404H13.9467V11.1662C13.9467 10.9799 13.8052 10.8275 13.6322 10.8275H11.9547C11.7818 10.8275 11.6402 10.9799 11.6402 11.1662Z" fill="white"/>
</svg>
