<svg width="26" height="26" viewBox="0 0 26 26" fill="none" xmlns="http://www.w3.org/2000/svg">
<rect width="25.4403" height="25.4403" rx="12.7202" fill="#0057FF"/>
<path d="M9.19991 10H10.2952V13.3643C10.2952 13.7421 10.205 14.0726 10.0246 14.3559C9.8458 14.6392 9.59537 14.8602 9.27327 15.0187C8.95117 15.1755 8.57595 15.2539 8.14761 15.2539C7.71758 15.2539 7.34152 15.1755 7.01942 15.0187C6.69732 14.8602 6.44689 14.6392 6.26814 14.3559C6.08938 14.0726 6 13.7421 6 13.3643V10H7.09531V13.2707C7.09531 13.468 7.13831 13.6434 7.22432 13.7969C7.31201 13.9504 7.43511 14.0709 7.59363 14.1586C7.75215 14.2463 7.93681 14.2902 8.14761 14.2902C8.3601 14.2902 8.54475 14.2463 8.70159 14.1586C8.86011 14.0709 8.98237 13.9504 9.06838 13.7969C9.15607 13.6434 9.19991 13.468 9.19991 13.2707V10Z" fill="white"/>
<path d="M11.1964 15.1806V10H13.2403C13.6315 10 13.9654 10.07 14.242 10.21C14.5202 10.3482 14.7319 10.5447 14.8769 10.7993C15.0236 11.0523 15.097 11.35 15.097 11.6923C15.097 12.0363 15.0228 12.3323 14.8744 12.5802C14.726 12.8264 14.511 13.0153 14.2293 13.1468C13.9494 13.2783 13.6104 13.3441 13.2125 13.3441H11.844V12.4638H13.0354C13.2445 12.4638 13.4182 12.4351 13.5565 12.3778C13.6948 12.3205 13.7976 12.2345 13.8651 12.1198C13.9342 12.0051 13.9688 11.8626 13.9688 11.6923C13.9688 11.5203 13.9342 11.3752 13.8651 11.2572C13.7976 11.1392 13.6939 11.0498 13.5539 10.9891C13.4157 10.9267 13.2411 10.8955 13.0303 10.8955H12.2917V15.1806H11.1964ZM13.9941 12.823L15.2816 15.1806H14.0725L12.8128 12.823H13.9941Z" fill="white"/>
<path d="M15.871 15.1806V10H16.9663V14.2775H19.1873V15.1806H15.871Z" fill="white"/>
</svg>
